<svg width="25" height="25" viewBox="0 0 25 25" fill="none" xmlns="http://www.w3.org/2000/svg">
<path fill-rule="evenodd" clip-rule="evenodd" d="M12.2389 4.1665C13.6703 4.1665 14.8307 5.31748 14.8307 6.73728V13.3066C16.2432 14.1698 17.1868 15.7185 17.1868 17.4878C17.1868 20.1983 14.9716 22.3957 12.2389 22.3957C9.50627 22.3957 7.29102 20.1983 7.29102 17.4878C7.29102 15.7185 8.23466 14.1698 9.64717 13.3066V6.73728C9.64717 5.31748 10.8075 4.1665 12.2389 4.1665ZM10.8252 14.0203C9.44367 14.575 8.46909 15.9185 8.46909 17.4878C8.46909 19.553 10.1569 21.2271 12.2389 21.2271C14.321 21.2271 16.0088 19.553 16.0088 17.4878C16.0088 15.9185 15.0342 14.575 13.6526 14.0203V6.73728C13.6526 5.96285 13.0197 5.33504 12.2389 5.33504C11.4582 5.33504 10.8252 5.96285 10.8252 6.73728V14.0203Z" fill="#231815"/>
<path fill-rule="evenodd" clip-rule="evenodd" d="M12.2383 6.77051C12.6698 6.77051 13.0195 7.12029 13.0195 7.55176V14.421C14.3674 14.7679 15.3633 15.9915 15.3633 17.4476C15.3633 19.1735 13.9642 20.5726 12.2383 20.5726C10.5124 20.5726 9.11328 19.1735 9.11328 17.4476C9.11328 15.9914 10.1092 14.7679 11.457 14.421V7.55176C11.457 7.12029 11.8068 6.77051 12.2383 6.77051Z" fill="#F25022"/>
</svg>
