<svg width="19" height="19" viewBox="0 0 19 19" fill="none" xmlns="http://www.w3.org/2000/svg">
<path d="M9.49935 9.49992C10.3702 9.49992 11.0827 8.78742 11.0827 7.91659C11.0827 7.04575 10.3702 6.33325 9.49935 6.33325C8.62852 6.33325 7.91602 7.04575 7.91602 7.91659C7.91602 8.78742 8.62852 9.49992 9.49935 9.49992ZM9.49935 1.58325C12.8243 1.58325 15.8327 4.13242 15.8327 8.07492C15.8327 10.5924 13.8931 13.5533 10.0218 16.9653C9.72101 17.2266 9.26977 17.2266 8.96893 16.9653C5.1056 13.5533 3.16602 10.5924 3.16602 8.07492C3.16602 4.13242 6.17435 1.58325 9.49935 1.58325Z" fill="#323232"/>
</svg>
