<svg width="11" height="19" viewBox="0 0 11 19" fill="none" xmlns="http://www.w3.org/2000/svg">
<path fill-rule="evenodd" clip-rule="evenodd" d="M5.23893 0.166504C6.67033 0.166504 7.8307 1.31748 7.8307 2.73728V9.30664C9.24321 10.1698 10.1868 11.7185 10.1868 13.4878C10.1868 16.1983 7.97159 18.3957 5.23893 18.3957C2.50627 18.3957 0.291016 16.1983 0.291016 13.4878C0.291016 11.7185 1.23466 10.1698 2.64717 9.30664V2.73728C2.64717 1.31748 3.80754 0.166504 5.23893 0.166504ZM3.82524 10.0203C2.44367 10.575 1.46909 11.9185 1.46909 13.4878C1.46909 15.553 3.15691 17.2271 5.23893 17.2271C7.32096 17.2271 9.00877 15.553 9.00877 13.4878C9.00877 11.9185 8.03419 10.575 6.65262 10.0203V2.73728C6.65262 1.96285 6.01969 1.33504 5.23893 1.33504C4.45817 1.33504 3.82524 1.96285 3.82524 2.73728V10.0203Z" fill="#231815"/>
<path fill-rule="evenodd" clip-rule="evenodd" d="M5.23828 2.77051C5.66975 2.77051 6.01953 3.12029 6.01953 3.55176V10.421C7.36736 10.7679 8.36328 11.9915 8.36328 13.4476C8.36328 15.1735 6.96417 16.5726 5.23828 16.5726C3.51239 16.5726 2.11328 15.1735 2.11328 13.4476C2.11328 11.9914 3.1092 10.7679 4.45703 10.421V3.55176C4.45703 3.12029 4.80681 2.77051 5.23828 2.77051Z" fill="#F25022"/>
</svg>
